<svg width="33" height="29" viewBox="0 0 33 29" fill="none" xmlns="http://www.w3.org/2000/svg">
<path fill-rule="evenodd" clip-rule="evenodd" d="M7.42233 24.8203C7.84433 24.8203 8.18733 25.1633 8.18733 25.5853C8.18733 26.0073 7.84433 26.3493 7.42233 26.3493C7.00033 26.3493 6.65833 26.0073 6.65833 25.5853C6.65833 25.1633 7.00033 24.8203 7.42233 24.8203Z" stroke="#C92071" stroke-width="1.5" stroke-linecap="round" stroke-linejoin="round"/>
<path fill-rule="evenodd" clip-rule="evenodd" d="M18.6747 24.8203C19.0967 24.8203 19.4397 25.1633 19.4397 25.5853C19.4397 26.0073 19.0967 26.3493 18.6747 26.3493C18.2527 26.3493 17.9097 26.0073 17.9097 25.5853C17.9097 25.1633 18.2527 24.8203 18.6747 24.8203Z" stroke="#C92071" stroke-width="1.5" stroke-linecap="round" stroke-linejoin="round"/>
<path d="M2.74988 8.25L4.82988 8.61L5.79288 20.083C5.87088 21.018 6.65188 21.736 7.58988 21.736H18.5019C19.3979 21.736 20.1579 21.078 20.2869 20.19L21.2359 13.632C21.3529 12.823 20.7259 12.099 19.9089 12.099H5.16388" stroke="#C92071" stroke-width="1.5" stroke-linecap="round" stroke-linejoin="round"/>
<path d="M14.1254 15.795H16.8984" stroke="#C92071" stroke-width="1.5" stroke-linecap="round" stroke-linejoin="round"/>
<circle cx="24.5" cy="8.5" r="8.5" fill="#EE4266"/>
</svg>
